<svg width="115" height="115" viewBox="0 0 115 115" fill="none" xmlns="http://www.w3.org/2000/svg">
<circle cx="33.6437" cy="1.83511" r="1.83511" fill="#C4C4C4"/>
<circle cx="33.6437" cy="17.7394" r="1.83511" fill="#C4C4C4"/>
<circle cx="33.6437" cy="33.6436" r="1.83511" fill="#C4C4C4"/>
<circle cx="33.6437" cy="49.5479" r="1.83511" fill="#C4C4C4"/>
<circle cx="49.5478" cy="1.83511" r="1.83511" fill="#C4C4C4"/>
<circle cx="49.5478" cy="17.7394" r="1.83511" fill="#C4C4C4"/>
<circle cx="49.5478" cy="33.6436" r="1.83511" fill="#C4C4C4"/>
<circle cx="49.5478" cy="49.5479" r="1.83511" fill="#C4C4C4"/>
<circle cx="17.7394" cy="1.83511" r="1.83511" fill="#C4C4C4"/>
<circle cx="17.7394" cy="17.7394" r="1.83511" fill="#C4C4C4"/>
<circle cx="17.7394" cy="33.6436" r="1.83511" fill="#C4C4C4"/>
<circle cx="17.7394" cy="49.5479" r="1.83511" fill="#C4C4C4"/>
<circle cx="1.83511" cy="1.83511" r="1.83511" fill="#C4C4C4"/>
<circle cx="1.83511" cy="17.7394" r="1.83511" fill="#C4C4C4"/>
<circle cx="1.83511" cy="33.6436" r="1.83511" fill="#C4C4C4"/>
<circle cx="1.83511" cy="49.5479" r="1.83511" fill="#C4C4C4"/>
<circle cx="33.6437" cy="65.4521" r="1.83511" fill="#C4C4C4"/>
<circle cx="33.6437" cy="81.3564" r="1.83511" fill="#C4C4C4"/>
<circle cx="33.6437" cy="97.2607" r="1.83511" fill="#C4C4C4"/>
<circle cx="33.6437" cy="113.165" r="1.83511" fill="#C4C4C4"/>
<circle cx="49.5478" cy="65.4521" r="1.83511" fill="#C4C4C4"/>
<circle cx="49.5478" cy="81.3564" r="1.83511" fill="#C4C4C4"/>
<circle cx="49.5478" cy="97.2607" r="1.83511" fill="#C4C4C4"/>
<circle cx="49.5478" cy="113.165" r="1.83511" fill="#C4C4C4"/>
<circle cx="17.7394" cy="65.4521" r="1.83511" fill="#C4C4C4"/>
<circle cx="17.7394" cy="81.3564" r="1.83511" fill="#C4C4C4"/>
<circle cx="17.7394" cy="97.2607" r="1.83511" fill="#C4C4C4"/>
<circle cx="17.7394" cy="113.165" r="1.83511" fill="#C4C4C4"/>
<circle cx="1.83511" cy="65.4521" r="1.83511" fill="#C4C4C4"/>
<circle cx="1.83511" cy="81.3564" r="1.83511" fill="#C4C4C4"/>
<circle cx="1.83511" cy="97.2607" r="1.83511" fill="#C4C4C4"/>
<circle cx="1.83511" cy="113.165" r="1.83511" fill="#C4C4C4"/>
<circle cx="97.2606" cy="1.83511" r="1.83511" fill="#C4C4C4"/>
<circle cx="97.2606" cy="17.7394" r="1.83511" fill="#C4C4C4"/>
<circle cx="97.2606" cy="33.6436" r="1.83511" fill="#C4C4C4"/>
<circle cx="97.2606" cy="49.5479" r="1.83511" fill="#C4C4C4"/>
<circle cx="113.165" cy="1.83511" r="1.83511" fill="#C4C4C4"/>
<circle cx="113.165" cy="17.7394" r="1.83511" fill="#C4C4C4"/>
<circle cx="113.165" cy="33.6436" r="1.83511" fill="#C4C4C4"/>
<circle cx="113.165" cy="49.5479" r="1.83511" fill="#C4C4C4"/>
<circle cx="81.3563" cy="1.83511" r="1.83511" fill="#C4C4C4"/>
<circle cx="81.3563" cy="17.7394" r="1.83511" fill="#C4C4C4"/>
<circle cx="81.3563" cy="33.6436" r="1.83511" fill="#C4C4C4"/>
<circle cx="81.3563" cy="49.5479" r="1.83511" fill="#C4C4C4"/>
<circle cx="65.452" cy="1.83511" r="1.83511" fill="#C4C4C4"/>
<circle cx="65.452" cy="17.7394" r="1.83511" fill="#C4C4C4"/>
<circle cx="65.452" cy="33.6436" r="1.83511" fill="#C4C4C4"/>
<circle cx="65.452" cy="49.5479" r="1.83511" fill="#C4C4C4"/>
<circle cx="97.2606" cy="65.4521" r="1.83511" fill="#C4C4C4"/>
<circle cx="97.2606" cy="81.3564" r="1.83511" fill="#C4C4C4"/>
<circle cx="97.2606" cy="97.2607" r="1.83511" fill="#C4C4C4"/>
<circle cx="97.2606" cy="113.165" r="1.83511" fill="#C4C4C4"/>
<circle cx="113.165" cy="65.4521" r="1.83511" fill="#C4C4C4"/>
<circle cx="113.165" cy="81.3564" r="1.83511" fill="#C4C4C4"/>
<circle cx="113.165" cy="97.2607" r="1.83511" fill="#C4C4C4"/>
<circle cx="113.165" cy="113.165" r="1.83511" fill="#C4C4C4"/>
<circle cx="81.3563" cy="65.4521" r="1.83511" fill="#C4C4C4"/>
<circle cx="81.3563" cy="81.3564" r="1.83511" fill="#C4C4C4"/>
<circle cx="81.3563" cy="97.2607" r="1.83511" fill="#C4C4C4"/>
<circle cx="81.3563" cy="113.165" r="1.83511" fill="#C4C4C4"/>
<circle cx="65.452" cy="65.4521" r="1.83511" fill="#C4C4C4"/>
<circle cx="65.452" cy="81.3564" r="1.83511" fill="#C4C4C4"/>
<circle cx="65.452" cy="97.2607" r="1.83511" fill="#C4C4C4"/>
<circle cx="65.452" cy="113.165" r="1.83511" fill="#C4C4C4"/>
</svg>
